<svg width="25" height="21" viewBox="0 0 25 21" fill="none" xmlns="http://www.w3.org/2000/svg">
<path d="M23.8492 8.82349L15.5159 0.490153C15.3605 0.334755 15.176 0.211488 14.973 0.127387C14.77 0.0432865 14.5523 0 14.3326 0C13.8887 0 13.4631 0.176313 13.1492 0.490153C12.9938 0.64555 12.8706 0.830034 12.7865 1.03307C12.7024 1.23611 12.6591 1.45372 12.6591 1.67349C12.6591 2.11732 12.8354 2.54298 13.1492 2.85682L20.3159 10.0068L13.1492 17.1568C12.993 17.3118 12.869 17.4961 12.7844 17.6992C12.6998 17.9023 12.6562 18.1201 12.6562 18.3402C12.6562 18.5602 12.6998 18.778 12.7844 18.9811C12.869 19.1842 12.993 19.3685 13.1492 19.5235C13.3042 19.6797 13.4885 19.8037 13.6916 19.8883C13.8947 19.9729 14.1126 20.0165 14.3326 20.0165C14.5526 20.0165 14.7704 19.9729 14.9735 19.8883C15.1766 19.8037 15.361 19.6797 15.5159 19.5235L23.8492 11.1902C24.0055 11.0352 24.1295 10.8509 24.2141 10.6478C24.2987 10.4447 24.3422 10.2268 24.3422 10.0068C24.3422 9.7868 24.2987 9.56896 24.2141 9.36586C24.1295 9.16276 24.0055 8.97843 23.8492 8.82349Z" fill="#FE4902"/>
<path d="M11.859 8.83032L3.52568 0.496989C3.37028 0.341591 3.1858 0.218324 2.98276 0.134223C2.77973 0.0501224 2.56211 0.00683594 2.34235 0.00683594C1.89851 0.00683594 1.47285 0.183149 1.15901 0.496989C1.00362 0.652386 0.880347 0.83687 0.796246 1.03991C0.712146 1.24294 0.668861 1.46056 0.668861 1.68032C0.668861 2.12416 0.845173 2.54982 1.15901 2.86366L8.32568 10.0137L1.15901 17.1637C1.0028 17.3186 0.878809 17.5029 0.794194 17.706C0.70958 17.9091 0.666016 18.127 0.666016 18.347C0.666016 18.567 0.70958 18.7849 0.794194 18.9879C0.878809 19.191 1.0028 19.3754 1.15901 19.5303C1.31395 19.6865 1.49829 19.8105 1.70138 19.8951C1.90448 19.9798 2.12233 20.0233 2.34235 20.0233C2.56237 20.0233 2.78021 19.9798 2.98331 19.8951C3.18641 19.8105 3.37074 19.6865 3.52568 19.5303L11.859 11.197C12.0152 11.0421 12.1392 10.8577 12.2238 10.6546C12.3084 10.4515 12.352 10.2337 12.352 10.0137C12.352 9.79364 12.3084 9.57579 12.2238 9.37269C12.1392 9.1696 12.0152 8.98526 11.859 8.83032Z" fill="#FE4902"/>
</svg>
