<svg width="453" height="440" viewBox="0 0 453 440" fill="none" xmlns="http://www.w3.org/2000/svg">
<g filter="url(#filter0_b_2178_1263)">
<rect width="453" height="440" rx="24" transform="matrix(-1 0 0 1 453 0)" fill="white"/>
</g>
<g filter="url(#filter1_b_2178_1263)">
<rect x="335.408" y="26" width="93.5916" height="71.5916" rx="24" fill="url(#paint0_linear_2178_1263)"/>
<rect x="336.046" y="26.6373" width="92.3169" height="70.3169" rx="23.3627" stroke="white" stroke-width="1.27465"/>
<path d="M353.321 57.113C353.321 55.2979 353.984 53.8397 355.309 52.7384C356.655 51.6371 358.389 51.0864 360.51 51.0864C362.651 51.0864 364.385 51.6371 365.71 52.7384C367.056 53.8397 367.729 55.2979 367.729 57.113C367.729 58.2958 367.413 59.336 366.781 60.2333C366.149 61.1103 365.262 61.7731 364.12 62.2218C365.364 62.4461 366.434 63.0579 367.332 64.0572C368.249 65.0362 368.708 66.1273 368.708 67.3305C368.708 69.2272 367.954 70.7568 366.445 71.9193C364.956 73.0818 362.978 73.663 360.51 73.663C358.062 73.663 356.084 73.0818 354.575 71.9193C353.086 70.7568 352.342 69.2272 352.342 67.3305C352.342 66.1273 352.791 65.0362 353.688 64.0572C354.606 63.0579 355.687 62.4461 356.931 62.2218C355.789 61.7731 354.901 61.1001 354.269 60.2027C353.637 59.3054 353.321 58.2754 353.321 57.113ZM355.738 57.113C355.738 58.3366 356.166 59.3054 357.022 60.0192C357.899 60.733 359.062 61.0899 360.51 61.0899C361.958 61.0899 363.12 60.7432 363.997 60.0498C364.874 59.336 365.313 58.357 365.313 57.113C365.313 55.8893 364.874 54.9308 363.997 54.2374C363.12 53.5236 361.958 53.1667 360.51 53.1667C359.062 53.1667 357.899 53.5236 357.022 54.2374C356.166 54.9308 355.738 55.8893 355.738 57.113ZM354.973 67.3305C354.973 68.6154 355.472 69.6453 356.472 70.4203C357.471 71.1749 358.817 71.5522 360.51 71.5522C362.223 71.5522 363.579 71.1749 364.578 70.4203C365.578 69.6657 366.077 68.6358 366.077 67.3305C366.077 66.0457 365.578 65.0362 364.578 64.302C363.6 63.5678 362.243 63.2007 360.51 63.2007C358.797 63.2007 357.44 63.578 356.441 64.3326C355.462 65.0668 354.973 66.0661 354.973 67.3305ZM378.823 73.663C376.233 73.663 374.133 72.6229 372.522 70.5427C370.931 68.442 370.135 65.7194 370.135 62.3747C370.135 59.03 370.931 56.3176 372.522 54.2374C374.133 52.1367 376.233 51.0864 378.823 51.0864C381.434 51.0864 383.534 52.1367 385.125 54.2374C386.716 56.3176 387.511 59.03 387.511 62.3747C387.511 65.7194 386.716 68.442 385.125 70.5427C383.534 72.6229 381.434 73.663 378.823 73.663ZM378.823 53.3502C376.927 53.3502 375.448 54.1558 374.388 55.7669C373.347 57.3577 372.827 59.5603 372.827 62.3747C372.827 65.1891 373.347 67.4019 374.388 69.0131C375.448 70.6038 376.927 71.3992 378.823 71.3992C380.72 71.3992 382.199 70.6038 383.259 69.0131C384.32 67.4223 384.85 65.2095 384.85 62.3747C384.85 59.5399 384.32 57.3271 383.259 55.7363C382.199 54.1456 380.72 53.3502 378.823 53.3502ZM409.799 66.9329H412.277C411.93 69.0539 411.084 70.7058 409.738 71.8887C408.412 73.0716 406.709 73.663 404.629 73.663C402.447 73.663 400.571 72.9288 399 71.4604C397.43 69.992 396.39 68.0036 395.88 65.4951H393.585V63.6596H395.666C395.645 63.3129 395.625 63.0477 395.605 62.8642C395.605 62.6806 395.605 62.5073 395.605 62.3441C395.605 61.9974 395.605 61.7425 395.605 61.5793C395.605 61.4162 395.615 61.2632 395.635 61.1205H393.585V59.285H395.88C396.349 56.7561 397.369 54.7574 398.939 53.289C400.509 51.8206 402.406 51.0864 404.629 51.0864C406.73 51.0864 408.443 51.6779 409.768 52.8607C411.094 54.0232 411.93 55.665 412.277 57.786H409.799C409.534 56.3176 408.963 55.2061 408.086 54.4515C407.229 53.6969 406.087 53.3196 404.66 53.3196C403.048 53.3196 401.713 53.8397 400.652 54.8798C399.592 55.8995 398.868 57.3679 398.48 59.285H405.853L405.516 61.1205H398.235C398.215 61.2632 398.205 61.4162 398.205 61.5793C398.205 61.7425 398.205 61.9974 398.205 62.3441C398.205 62.5073 398.205 62.6806 398.205 62.8642C398.225 63.0477 398.246 63.3129 398.266 63.6596H404.966L404.629 65.4951H398.511C398.898 67.3917 399.622 68.8601 400.683 69.9002C401.743 70.92 403.069 71.4298 404.66 71.4298C406.108 71.4298 407.26 71.0525 408.116 70.2979C408.973 69.5433 409.534 68.4216 409.799 66.9329Z" fill="#181818"/>
</g>
<rect x="23.4084" y="26" width="32" height="383" rx="16" fill="#EEF4F4"/>
<rect x="75.4084" y="140.049" width="31.8662" height="268.951" rx="15.9331" fill="#EEF4F4"/>
<rect x="127.275" y="216.528" width="31.8662" height="192.472" rx="15.9331" fill="#EEF4F4"/>
<rect x="179.141" y="266.239" width="31.8662" height="142.761" rx="15.9331" fill="#EEF4F4"/>
<rect x="231.007" y="307.028" width="31.8662" height="101.972" rx="15.9331" fill="#EEF4F4"/>
<rect x="282.873" y="336.345" width="31.8662" height="72.6549" rx="15.9331" fill="#EEF4F4"/>
<rect x="334.74" y="363.113" width="31.8662" height="45.8873" rx="15.9331" fill="#EEF4F4"/>
<rect x="386.606" y="377.134" width="31.8662" height="31.8662" rx="15.9331" fill="#FE4902"/>
<line y1="-0.5" x2="242" y2="-0.5" transform="matrix(-1 8.74228e-08 8.74228e-08 1 325 62)" stroke="#C2D8D8"/>
<defs>
<filter id="filter0_b_2178_1263" x="-40" y="-40" width="533" height="520" filterUnits="userSpaceOnUse" color-interpolation-filters="sRGB">
<feFlood flood-opacity="0" result="BackgroundImageFix"/>
<feGaussianBlur in="BackgroundImageFix" stdDeviation="20"/>
<feComposite in2="SourceAlpha" operator="in" result="effect1_backgroundBlur_2178_1263"/>
<feBlend mode="normal" in="SourceGraphic" in2="effect1_backgroundBlur_2178_1263" result="shape"/>
</filter>
<filter id="filter1_b_2178_1263" x="294.62" y="-14.7887" width="175.169" height="153.169" filterUnits="userSpaceOnUse" color-interpolation-filters="sRGB">
<feFlood flood-opacity="0" result="BackgroundImageFix"/>
<feGaussianBlur in="BackgroundImageFix" stdDeviation="20.3944"/>
<feComposite in2="SourceAlpha" operator="in" result="effect1_backgroundBlur_2178_1263"/>
<feBlend mode="normal" in="SourceGraphic" in2="effect1_backgroundBlur_2178_1263" result="shape"/>
</filter>
<linearGradient id="paint0_linear_2178_1263" x1="382.204" y1="26" x2="382.204" y2="97.5916" gradientUnits="userSpaceOnUse">
<stop stop-color="white"/>
<stop offset="1" stop-color="white"/>
</linearGradient>
</defs>
</svg>
