<svg width="24" height="24" viewBox="0 0 24 24" fill="none" xmlns="http://www.w3.org/2000/svg">
<path d="M19.8948 18.6799C18.8792 16.9477 17.2933 15.5979 15.3924 14.848C16.3377 14.159 17.0359 13.1985 17.3882 12.1024C17.7406 11.0064 17.7291 9.83035 17.3554 8.74099C16.9818 7.65163 16.2649 6.70413 15.3063 6.03271C14.3477 5.3613 13.1961 5 12.0144 5C10.8328 5 9.68116 5.3613 8.72258 6.03271C7.76401 6.70413 7.04711 7.65163 6.67345 8.74099C6.29979 9.83035 6.28831 11.0064 6.64063 12.1024C6.99295 13.1985 7.69121 14.159 8.6365 14.848C6.73562 15.5979 5.14971 16.9477 4.13407 18.6799C4.07114 18.7783 4.0292 18.8879 4.01073 19.0023C3.99227 19.1167 3.99767 19.2336 4.0266 19.3459C4.05554 19.4582 4.10742 19.5638 4.17916 19.6562C4.25091 19.7487 4.34105 19.8262 4.44423 19.8841C4.54741 19.9421 4.66153 19.9792 4.77979 19.9935C4.89805 20.0077 5.01805 19.9986 5.13265 19.9669C5.24725 19.9351 5.35411 19.8813 5.44688 19.8086C5.53965 19.736 5.61643 19.6459 5.67266 19.5438C7.01495 17.2891 9.38543 15.9444 12.0144 15.9444C14.6434 15.9444 17.0139 17.2898 18.3562 19.5438C18.4781 19.7342 18.6714 19.8711 18.8952 19.9256C19.1191 19.98 19.356 19.9478 19.5558 19.8356C19.7556 19.7234 19.9027 19.5401 19.9659 19.3244C20.0292 19.1088 20.0037 18.8776 19.8948 18.6799ZM8.16241 10.4733C8.16241 9.73289 8.38832 9.00915 8.81159 8.39355C9.23486 7.77795 9.83646 7.29815 10.5403 7.01483C11.2442 6.7315 12.0187 6.65737 12.7659 6.80181C13.5132 6.94625 14.1995 7.30277 14.7382 7.82629C15.2769 8.34981 15.6438 9.01682 15.7925 9.74297C15.9411 10.4691 15.8648 11.2218 15.5732 11.9058C15.2817 12.5898 14.788 13.1745 14.1545 13.5858C13.521 13.9971 12.7763 14.2167 12.0144 14.2167C10.9932 14.2155 10.0141 13.8208 9.29194 13.119C8.5698 12.4172 8.16358 11.4657 8.16241 10.4733Z" fill="black"/>
</svg>
