<svg width="618" height="218" viewBox="0 0 618 218" fill="none" xmlns="http://www.w3.org/2000/svg">
<rect y="57.7124" width="159.57" height="159.57" rx="79.7852" fill="#FE4902"/>
<path fill-rule="evenodd" clip-rule="evenodd" d="M89.8303 139.636L70.2877 167.034C68.5904 169.362 65.9233 170.768 63.0623 170.768C55.8369 170.768 51.618 162.621 55.8369 156.754L63.8778 145.475H46.0019C41.2573 145.475 37.4111 141.628 37.4111 136.884C37.4111 132.139 41.2573 128.293 46.0019 128.293L63.964 128.293L55.8369 116.893C51.618 111.025 55.8369 102.878 63.0623 102.878C65.9234 102.878 68.639 104.285 70.2877 106.612L89.8788 134.011C91.0426 135.708 91.0426 137.939 89.8303 139.636ZM122.045 139.636L102.503 167.034C100.805 169.362 98.1383 170.768 95.2772 170.768C88.0518 170.768 83.8329 162.621 88.0518 156.754L102.26 136.823L88.0518 116.893C83.8329 111.025 88.0518 102.878 95.2772 102.878C98.1383 102.878 100.854 104.285 102.503 106.612L122.094 134.011C123.257 135.708 123.257 137.939 122.045 139.636Z" fill="white"/>
<path d="M218.516 183V162.435L264.615 111.709H220.744V89.4311H298.889V109.996L254.161 160.722H299.061V183H218.516ZM346.905 185.056C317.258 185.056 298.065 163.121 298.065 136.044C298.065 108.111 318.458 87.3746 345.192 87.3746C374.839 87.3746 391.462 107.596 391.462 133.474C391.462 137.244 391.119 140.843 390.262 143.413H324.798C326.341 155.238 334.567 162.778 347.248 162.778C356.331 162.778 363.014 158.837 366.613 152.496L387.178 162.264C381.523 175.974 366.099 185.056 346.905 185.056ZM345.192 107.939C335.081 107.939 327.712 113.766 325.313 124.562H364.214C363.186 114.623 355.817 107.939 345.192 107.939ZM398.03 183V89.4311H422.022V100.913C426.821 91.6589 436.418 87.3746 448.242 87.3746C469.321 87.3746 483.716 101.598 483.716 122.849V183H458.01V128.332C458.01 117.536 450.984 110.51 440.873 110.51C430.762 110.51 423.736 117.536 423.736 128.332V183H398.03ZM519.681 183L482.837 89.4311H510.599L530.821 145.47L551.043 89.4311H578.805L541.96 183H519.681ZM581.552 81.0339V55.3281H607.258V81.0339H581.552ZM581.552 183V89.4311H607.258V183H581.552Z" fill="white"/>
</svg>
