<svg width="738" height="260" viewBox="0 0 738 260" fill="none" xmlns="http://www.w3.org/2000/svg">
<rect y="69" width="190.78" height="190.78" rx="95.3899" fill="#FE4902"/>
<path fill-rule="evenodd" clip-rule="evenodd" d="M107.4 166.947L84.0352 199.704C82.006 202.487 78.8172 204.168 75.3966 204.168C66.758 204.168 61.714 194.428 66.758 187.413L76.3717 173.927H55C49.3275 173.927 44.729 169.329 44.729 163.656C44.729 157.984 49.3275 153.385 55 153.385H76.4747L66.758 139.755C61.714 132.74 66.758 123 75.3966 123C78.8173 123 82.064 124.681 84.0352 127.464L107.458 160.221C108.849 162.251 108.849 164.917 107.4 166.947ZM145.916 166.947L122.551 199.704C120.522 202.487 117.333 204.168 113.912 204.168C105.274 204.168 100.23 194.428 105.274 187.413L122.261 163.584L105.274 139.755C100.23 132.74 105.274 123 113.912 123C117.333 123 120.58 124.681 122.551 127.464L145.974 160.221C147.365 162.251 147.365 164.917 145.916 166.947Z" fill="white"/>
<path d="M261.254 219V194.413L316.369 133.766H263.917V107.131H357.347V131.717L303.871 192.364H357.552V219H261.254ZM414.754 221.459C379.308 221.459 356.361 195.233 356.361 162.86C356.361 129.463 380.743 104.672 412.705 104.672C448.151 104.672 468.025 128.849 468.025 159.787C468.025 164.295 467.616 168.597 466.591 171.671H388.323C390.167 185.808 400.002 194.823 415.164 194.823C426.023 194.823 434.014 190.111 438.316 182.53L462.903 194.208C456.142 210.6 437.702 221.459 414.754 221.459ZM412.705 129.259C400.617 129.259 391.807 136.225 388.938 149.133H435.448C434.219 137.249 425.408 129.259 412.705 129.259ZM475.878 219V107.131H504.563V120.858C510.3 109.794 521.774 104.672 535.911 104.672C561.112 104.672 578.323 121.678 578.323 147.084V219H547.59V153.64C547.59 140.732 539.189 132.332 527.101 132.332C515.012 132.332 506.612 140.732 506.612 153.64V219H475.878ZM621.322 219L577.271 107.131H610.463L634.64 174.129L658.817 107.131H692.009L647.958 219H621.322ZM695.294 97.091V66.3576H726.027V97.091H695.294ZM695.294 219V107.131H726.027V219H695.294Z" fill="black"/>
</svg>
