<svg width="75" height="119" viewBox="0 0 75 119" fill="none" xmlns="http://www.w3.org/2000/svg">
<path d="M44.9483 0C43.9607 0 43.0135 0.391066 42.3152 1.08717C41.6168 1.78327 41.2245 2.72739 41.2245 3.71183V22.271H18.8813V3.71183C18.8813 2.72739 18.489 1.78327 17.7906 1.08717C17.0923 0.391066 16.1451 0 15.1574 0C14.1698 0 13.2226 0.391066 12.5243 1.08717C11.8259 1.78327 11.4336 2.72739 11.4336 3.71183V22.271H3.98585C2.99822 22.271 2.05104 22.662 1.35268 23.3581C0.65432 24.0542 0.261986 24.9983 0.261986 25.9828V48.2537C0.261986 55.1448 3.00833 61.7536 7.89685 66.6263C12.7854 71.499 19.4156 74.2365 26.329 74.2365C26.3439 77.4584 26.4035 80.5095 26.6269 83.2934C26.9323 87.1091 27.5654 90.7393 28.9879 93.8646C30.4285 97.171 32.9842 99.8708 36.2122 101.496C39.5487 103.189 43.6897 103.931 48.6722 103.931C56.105 103.931 60.6631 106.381 63.374 109.261C65.8229 111.837 67.2198 115.231 67.2915 118.778H74.7393C74.7393 114.205 73.0114 108.63 68.8034 104.169C64.5061 99.6254 57.8999 96.5075 48.6722 96.5075C44.3451 96.5075 41.5075 95.8542 39.6009 94.8817C37.806 93.9686 36.6218 92.6546 35.7728 90.7987C34.8716 88.824 34.3353 86.1886 34.0598 82.7069C33.8587 80.1829 33.7991 77.3767 33.7842 74.2365C40.6963 74.2345 47.3247 71.4962 52.2116 66.6237C57.0985 61.7512 59.8438 55.1435 59.8438 48.2537V25.9828C59.8438 24.9983 59.4515 24.0542 58.7531 23.3581C58.0547 22.662 57.1076 22.271 56.1199 22.271H48.6722V3.71183C48.6722 2.72739 48.2799 1.78327 47.5815 1.08717C46.8832 0.391066 45.936 0 44.9483 0ZM52.3961 29.6946V48.2537C52.3961 53.1759 50.4344 57.8965 46.9426 61.377C43.4508 64.8575 38.7149 66.8129 33.7768 66.8129H26.329C21.3909 66.8129 16.655 64.8575 13.1632 61.377C9.67139 57.8965 7.70972 53.1759 7.70972 48.2537V29.6946H52.3961Z" fill="black"/>
</svg>
