<svg width="191" height="191" viewBox="0 0 191 191" fill="none" xmlns="http://www.w3.org/2000/svg">
<rect width="190.78" height="190.78" rx="95.3899" fill="#FE4902"/>
<path fill-rule="evenodd" clip-rule="evenodd" d="M107.399 97.9467L84.0347 130.704C82.0055 133.487 78.8168 135.168 75.3961 135.168C66.7575 135.168 61.7135 125.428 66.7575 118.413L76.3712 104.927H54.9995C49.327 104.927 44.7285 100.329 44.7285 94.6562C44.7285 88.9837 49.327 84.3853 54.9995 84.3853H76.4742L66.7575 70.7554C61.7135 63.7401 66.7575 54 75.3961 54C78.8168 54 82.0635 55.6813 84.0347 58.4642L107.457 91.2213C108.849 93.2505 108.849 95.9175 107.399 97.9467ZM145.915 97.9467L122.551 130.704C120.521 133.487 117.333 135.168 113.912 135.168C105.273 135.168 100.229 125.428 105.273 118.413L122.261 94.584L105.273 70.7554C100.229 63.7401 105.273 54 113.912 54C117.333 54 120.579 55.6813 122.551 58.4642L145.973 91.2213C147.365 93.2505 147.365 95.9175 145.915 97.9467Z" fill="white"/>
</svg>
