<svg width="727" height="194" viewBox="0 0 727 194" fill="none" xmlns="http://www.w3.org/2000/svg">
<rect y="3.00012" width="190.78" height="190.78" rx="95.3899" fill="#FE4902"/>
<path fill-rule="evenodd" clip-rule="evenodd" d="M107.4 100.947L84.0352 133.704C82.006 136.487 78.8172 138.168 75.3966 138.168C66.758 138.168 61.714 128.428 66.758 121.413L76.3717 107.927H55C49.3275 107.927 44.729 103.329 44.729 97.6563C44.729 91.9839 49.3275 87.3854 55 87.3854H76.4747L66.758 73.7555C61.714 66.7403 66.758 57.0001 75.3966 57.0001C78.8173 57.0001 82.064 58.6815 84.0352 61.4644L107.458 94.2214C108.849 96.2506 108.849 98.9176 107.4 100.947ZM145.916 100.947L122.551 133.704C120.522 136.487 117.333 138.168 113.912 138.168C105.274 138.168 100.23 128.428 105.274 121.413L122.261 97.5841L105.274 73.7555C100.23 66.7403 105.274 57.0001 113.912 57.0001C117.333 57.0001 120.58 58.6815 122.551 61.4644L145.974 94.2214C147.365 96.2506 147.365 98.9176 145.916 100.947Z" fill="white"/>
<path d="M695.294 31.091V0.357666H726.027V31.091H695.294ZM695.294 153V41.1306H726.027V153H695.294Z" fill="black"/>
<path d="M621.323 153L577.271 41.1306H610.464L634.64 108.129L658.817 41.1306H692.009L647.958 153H621.323Z" fill="black"/>
<path d="M475.878 153V41.1306H504.563V54.8581C510.3 43.7941 521.774 38.6719 535.911 38.6719C561.112 38.6719 578.323 55.6777 578.323 81.0839V153H547.59V87.6404C547.59 74.7324 539.189 66.3319 527.101 66.3319C515.012 66.3319 506.612 74.7324 506.612 87.6404V153H475.878Z" fill="black"/>
<path d="M414.754 155.459C379.308 155.459 356.361 129.233 356.361 96.8604C356.361 63.4635 380.743 38.6719 412.705 38.6719C448.151 38.6719 468.025 62.8488 468.025 93.7871C468.025 98.2946 467.616 102.597 466.591 105.671H388.324C390.168 119.808 400.002 128.823 415.164 128.823C426.023 128.823 434.014 124.111 438.316 116.53L462.903 128.208C456.142 144.6 437.702 155.459 414.754 155.459ZM412.705 63.2586C400.617 63.2586 391.807 70.2248 388.938 83.1328H435.448C434.219 71.2493 425.408 63.2586 412.705 63.2586Z" fill="black"/>
<path d="M261.254 153V128.413L316.369 67.7662H263.917V41.1306H357.347V65.7173L303.871 126.364H357.552V153H261.254Z" fill="black"/>
</svg>
